<svg id="visual" viewBox="0 0 900 600" width="900" height="600" xmlns="http://www.w3.org/2000/svg" xmlns:xlink="http://www.w3.org/1999/xlink" version="1.1"><rect x="0" y="0" width="900" height="600" fill="#3A606E"></rect><path d="M0 431L21.5 426C43 421 86 411 128.8 400.2C171.7 389.3 214.3 377.7 257.2 379.8C300 382 343 398 385.8 405C428.7 412 471.3 410 514.2 403.7C557 397.3 600 386.7 642.8 382C685.7 377.3 728.3 378.7 771.2 380.5C814 382.3 857 384.7 878.5 385.8L900 387L900 601L878.5 601C857 601 814 601 771.2 601C728.3 601 685.7 601 642.8 601C600 601 557 601 514.2 601C471.3 601 428.7 601 385.8 601C343 601 300 601 257.2 601C214.3 601 171.7 601 128.8 601C86 601 43 601 21.5 601L0 601Z" fill="#828e82"></path><path d="M0 467L21.5 460.7C43 454.3 86 441.7 128.8 433.7C171.7 425.7 214.3 422.3 257.2 427.7C300 433 343 447 385.8 455.2C428.7 463.3 471.3 465.7 514.2 457C557 448.3 600 428.7 642.8 419.5C685.7 410.3 728.3 411.7 771.2 414.5C814 417.3 857 421.7 878.5 423.8L900 426L900 601L878.5 601C857 601 814 601 771.2 601C728.3 601 685.7 601 642.8 601C600 601 557 601 514.2 601C471.3 601 428.7 601 385.8 601C343 601 300 601 257.2 601C214.3 601 171.7 601 128.8 601C86 601 43 601 21.5 601L0 601Z" fill="#99a299"></path><path d="M0 487L21.5 480.3C43 473.7 86 460.3 128.8 453.5C171.7 446.7 214.3 446.3 257.2 453.7C300 461 343 476 385.8 482.7C428.7 489.3 471.3 487.7 514.2 480.2C557 472.7 600 459.3 642.8 458.2C685.7 457 728.3 468 771.2 472.8C814 477.7 857 476.3 878.5 475.7L900 475L900 601L878.5 601C857 601 814 601 771.2 601C728.3 601 685.7 601 642.8 601C600 601 557 601 514.2 601C471.3 601 428.7 601 385.8 601C343 601 300 601 257.2 601C214.3 601 171.7 601 128.8 601C86 601 43 601 21.5 601L0 601Z" fill="#b0b6b0"></path><path d="M0 501L21.5 499.5C43 498 86 495 128.8 495.8C171.7 496.7 214.3 501.3 257.2 502.2C300 503 343 500 385.8 499C428.7 498 471.3 499 514.2 497.8C557 496.7 600 493.3 642.8 492.7C685.7 492 728.3 494 771.2 494.5C814 495 857 494 878.5 493.5L900 493L900 601L878.5 601C857 601 814 601 771.2 601C728.3 601 685.7 601 642.8 601C600 601 557 601 514.2 601C471.3 601 428.7 601 385.8 601C343 601 300 601 257.2 601C214.3 601 171.7 601 128.8 601C86 601 43 601 21.5 601L0 601Z" fill="#c8cbc8"></path><path d="M0 542L21.5 540C43 538 86 534 128.8 534C171.7 534 214.3 538 257.2 544.5C300 551 343 560 385.8 559.8C428.7 559.7 471.3 550.3 514.2 545.5C557 540.7 600 540.3 642.8 539.5C685.7 538.7 728.3 537.3 771.2 538.5C814 539.7 857 543.3 878.5 545.2L900 547L900 601L878.5 601C857 601 814 601 771.2 601C728.3 601 685.7 601 642.8 601C600 601 557 601 514.2 601C471.3 601 428.7 601 385.8 601C343 601 300 601 257.2 601C214.3 601 171.7 601 128.8 601C86 601 43 601 21.5 601L0 601Z" fill="#e0e0e0"></path></svg>